<?xml version="1.0" encoding="UTF-8" standalone="no"?>
<svg
   viewBox="0 0 844.801 122.879"
   fill="none"
   stroke="none"
   stroke-linecap="square"
   stroke-miterlimit="10"
   version="1.1"
   id="svg25"
   width="844.80103"
   height="122.879"
   xmlns:xlink="http://www.w3.org/1999/xlink"
   xmlns="http://www.w3.org/2000/svg"
   xmlns:svg="http://www.w3.org/2000/svg">
  <clipPath
     id="A">
    <path
       d="M 0,0 H 844.801 V 122.879 H 0 Z"
       id="path2" />
  </clipPath>
  <g
     clip-path="url(#A)"
     fill-rule="evenodd"
     id="g19">
    <path
       fill="#000000"
       fill-opacity="0"
       d="M 0,0 H 844.801 V 122.879 H 0 Z"
       id="path5" />
    <g
       fill="#dedede"
       id="g17">
      <path
         d="M 0,0 V 94.912 H 11.474 V 47.271 c 1.571,-3.213 3.763,-5.808 6.574,-7.786 2.811,-1.978 6.078,-2.966 9.799,-2.966 4.59,0 7.966,1.153 10.13,3.46 2.178,2.307 3.287,5.87 3.328,10.69 V 94.912 H 52.78 V 50.731 C 52.656,34.789 45.503,26.818 31.321,26.818 c -8.145,0 -14.761,3.11 -19.847,9.331 V 0 Z m 76.782,3.707 c -2.233,0 -3.921,0.639 -5.065,1.916 -1.13,1.277 -1.695,2.842 -1.695,4.696 0,1.854 0.565,3.399 1.695,4.634 1.144,1.236 2.832,1.854 5.065,1.854 2.233,0 3.928,-0.618 5.086,-1.854 1.158,-1.236 1.737,-2.781 1.737,-4.634 C 83.605,8.466 83.026,6.9 81.868,5.623 80.71,4.346 79.015,3.707 76.782,3.707 Z m -5.83,24.346 V 94.911 H 82.426 V 28.053 Z"
         id="path7" />
      <use
         xlink:href="#C"
         id="use9"
         x="0"
         y="0"
         width="100%"
         height="100%" />
      <path
         d="m 169.007,36.21 c 4.796,0 8.6,1.6 11.412,4.799 2.812,3.186 4.383,7.683 4.714,13.491 v 0.865 h -33.615 c 0.744,-6.056 2.688,-10.759 5.83,-14.109 3.142,-3.364 7.029,-5.046 11.66,-5.046 z m 0,-9.392 c -5.334,0 -10.289,1.476 -14.864,4.428 -4.562,2.939 -8.118,7.017 -10.668,12.235 -2.536,5.204 -3.804,11.122 -3.804,17.755 v 2.101 c 0,9.969 2.853,17.933 8.559,23.893 5.706,5.946 13.107,8.919 22.203,8.919 11.246,0 19.681,-4.305 25.305,-12.914 l -7.008,-5.438 c -2.109,2.719 -4.569,4.902 -7.38,6.55 -2.811,1.648 -6.243,2.472 -10.295,2.472 -5.706,0 -10.413,-2.025 -14.12,-6.076 -3.694,-4.065 -5.623,-9.392 -5.789,-15.983 h 45.461 V 60 c 0,-10.669 -2.419,-18.867 -7.256,-24.593 -4.837,-5.726 -11.619,-8.589 -20.343,-8.589 z m 94.271,14.891 c 2.646,0 5.127,0.597 7.442,1.792 l -2.853,31.081 -0.062,0.556 c -1.488,3.913 -3.384,6.921 -5.685,9.022 -2.288,2.101 -4.672,3.151 -7.153,3.151 -3.639,0 -6.299,-1.565 -7.98,-4.696 -1.668,-3.131 -2.212,-7.621 -1.633,-13.471 0.786,-8.486 2.756,-15.18 5.913,-20.082 3.17,-4.902 7.174,-7.353 12.011,-7.353 z M 261.417,6.488 c -9.882,0 -18.751,2.465 -26.607,7.394 -7.856,4.916 -14.079,11.898 -18.668,20.947 -4.59,9.035 -7.132,19.217 -7.629,30.546 -0.496,11.658 1.103,21.84 4.796,30.546 3.707,8.719 9.282,15.393 16.725,20.02 7.443,4.641 16.332,6.962 26.669,6.962 a 54.18,54.18 0 0 0 12.859,-1.545 c 4.245,-1.03 7.649,-2.348 10.213,-3.955 l -2.295,-7.106 c -2.481,1.442 -5.596,2.616 -9.344,3.522 -3.735,0.906 -7.463,1.359 -11.184,1.359 -8.642,0 -16.015,-1.991 -22.121,-5.973 -6.092,-3.968 -10.626,-9.708 -13.603,-17.219 -2.977,-7.525 -4.217,-16.395 -3.721,-26.612 0.455,-10.134 2.543,-19.073 6.264,-26.818 3.721,-7.745 8.807,-13.663 15.257,-17.755 6.45,-4.106 13.831,-6.159 22.141,-6.159 13.81,0 24.092,4.202 30.845,12.605 6.767,8.404 9.758,20.618 8.972,36.642 -0.248,7.415 -1.819,13.429 -4.714,18.043 -2.895,4.614 -6.678,6.921 -11.35,6.921 -6.078,0 -8.724,-4.758 -7.939,-14.274 l 3.225,-34.233 c -3.308,-2.595 -6.285,-4.332 -8.931,-5.211 -2.646,-0.893 -5.644,-1.339 -8.993,-1.339 -4.341,0 -8.49,1.524 -12.446,4.573 -3.942,3.048 -7.167,7.243 -9.675,12.585 -2.495,5.328 -4.052,11.39 -4.672,18.187 -0.786,8.445 0.331,15.057 3.349,19.835 3.018,4.778 7.463,7.168 13.334,7.168 3.06,0 6.023,-0.851 8.89,-2.554 2.881,-1.716 5.437,-4.325 7.67,-7.827 2.191,6.921 7.153,10.381 14.885,10.381 7.484,0 13.459,-2.884 17.924,-8.651 4.465,-5.767 6.946,-13.635 7.442,-23.604 0.496,-11.658 -1.054,-21.833 -4.652,-30.525 -3.598,-8.692 -9.076,-15.345 -16.436,-19.959 -7.36,-4.614 -16.187,-6.921 -26.483,-6.921 z m 89.869,20.33 c -6.905,0 -12.239,2.987 -16.001,8.96 l -0.186,-7.724 h -11.164 v 66.858 h 11.474 V 47.456 c 2.688,-6.385 7.794,-9.578 15.319,-9.578 2.026,0 3.907,0.144 5.644,0.433 V 27.683 c -1.158,-0.577 -2.853,-0.865 -5.086,-0.865 z m 41.802,9.392 c 5.789,0 10.426,2.279 13.913,6.838 3.501,4.545 5.251,10.484 5.251,17.817 0,8.198 -1.716,14.576 -5.148,19.135 -3.432,4.545 -8.063,6.818 -13.893,6.818 -5.789,0 -10.413,-2.245 -13.872,-6.735 -3.446,-4.49 -5.168,-10.443 -5.168,-17.858 0,-8.362 1.737,-14.789 5.21,-19.279 3.473,-4.49 8.042,-6.735 13.707,-6.735 z m 0,-9.392 c -5.913,0 -11.178,1.421 -15.795,4.264 -4.603,2.842 -8.201,6.879 -10.792,12.111 -2.577,5.232 -3.866,11.122 -3.866,17.672 v 0.803 c 0,10.381 2.819,18.723 8.456,25.026 5.651,6.303 13.024,9.454 22.121,9.454 6.037,0 11.377,-1.442 16.022,-4.325 4.658,-2.884 8.235,-6.907 10.73,-12.07 2.508,-5.177 3.763,-11.019 3.763,-17.528 v -0.803 c 0,-10.463 -2.825,-18.846 -8.476,-25.149 -5.637,-6.303 -13.024,-9.454 -22.162,-9.454 z m 76.037,0 c -8.352,0 -14.988,2.884 -19.909,8.651 l -0.31,-7.415 h -10.854 v 66.858 h 11.474 V 46.096 c 2.77,-6.385 7.918,-9.578 15.443,-9.578 9.551,0 14.327,4.861 14.327,14.583 v 43.81 h 11.536 V 50.545 c 0.455,-4.284 2.088,-7.69 4.9,-10.216 2.812,-2.54 6.347,-3.81 10.606,-3.81 5.168,0 8.848,1.188 11.04,3.563 2.191,2.362 3.287,5.932 3.287,10.711 v 44.119 h 11.474 V 50.113 c -0.248,-15.53 -7.732,-23.295 -22.452,-23.295 -4.879,0 -9.11,0.989 -12.694,2.966 -3.57,1.977 -6.471,4.573 -8.704,7.786 -3.39,-7.168 -9.779,-10.752 -19.164,-10.752 z m 119.949,35.653 v 13.718 c -1.447,2.966 -3.783,5.376 -7.008,7.23 -3.225,1.854 -6.636,2.781 -10.233,2.781 -3.763,0 -6.843,-1.009 -9.241,-3.028 -2.398,-2.019 -3.597,-4.82 -3.597,-8.404 0,-8.198 7.029,-12.297 21.087,-12.297 z M 575.553,26.817 c -4.879,0 -9.358,0.906 -13.438,2.719 -4.066,1.813 -7.291,4.277 -9.675,7.394 -2.371,3.103 -3.556,6.323 -3.556,9.66 h 11.536 c 0,-2.925 1.385,-5.417 4.155,-7.477 2.77,-2.06 6.202,-3.09 10.295,-3.09 4.672,0 8.207,1.188 10.606,3.563 2.398,2.362 3.597,5.541 3.597,9.536 v 5.252 H 577.91 c -9.634,0 -17.111,1.929 -22.431,5.788 -5.306,3.845 -7.959,9.248 -7.959,16.21 0,5.726 2.116,10.456 6.347,14.191 4.245,3.721 9.675,5.582 16.291,5.582 7.401,0 13.769,-2.76 19.102,-8.28 0.413,3.378 0.951,5.726 1.612,7.044 h 12.032 V 93.92 c -1.571,-3.625 -2.357,-8.507 -2.357,-14.645 V 48.506 c -0.165,-6.756 -2.44,-12.056 -6.822,-15.901 -4.383,-3.859 -10.44,-5.788 -18.172,-5.788 z"
         id="path11" />
      <use
         xlink:href="#D"
         id="use13"
         x="0"
         y="0"
         width="100%"
         height="100%" />
      <path
         d="m 695.936,81.997 c -2.357,0 -4.128,0.659 -5.313,1.977 -1.172,1.318 -1.757,2.966 -1.757,4.943 0,1.895 0.586,3.481 1.757,4.758 1.185,1.277 2.956,1.916 5.313,1.916 2.357,0 4.142,-0.639 5.354,-1.916 1.227,-1.277 1.84,-2.863 1.84,-4.758 0,-1.977 -0.613,-3.625 -1.84,-4.943 -1.213,-1.318 -2.998,-1.977 -5.354,-1.977 z M 722.046,0 V 94.912 H 733.52 V 47.271 c 1.571,-3.213 3.763,-5.808 6.574,-7.786 2.811,-1.978 6.078,-2.966 9.799,-2.966 4.59,0 7.966,1.153 10.13,3.46 2.178,2.307 3.287,5.87 3.328,10.69 v 44.243 h 11.474 V 50.731 c -0.124,-15.942 -7.277,-23.913 -21.459,-23.913 -8.145,0 -14.761,3.11 -19.847,9.331 V 0 Z m 101.28,26.818 c -8.269,0 -14.968,3.213 -20.095,9.639 l -0.372,-8.404 h -10.854 v 66.858 h 11.474 v -47.64 c 1.571,-3.213 3.763,-5.808 6.574,-7.786 2.811,-1.978 6.078,-2.966 9.799,-2.966 4.59,0 7.966,1.153 10.13,3.46 2.178,2.307 3.287,5.87 3.328,10.69 v 44.243 h 11.474 V 50.731 C 844.66,34.789 837.507,26.818 823.325,26.818 Z"
         id="path15" />
    </g>
  </g>
  <defs
     id="defs23">
    <path
       id="C"
       d="m 128.135,26.818 c -6.905,0 -12.239,2.987 -16.001,8.96 l -0.186,-7.724 h -11.164 v 66.858 h 11.474 V 47.456 c 2.688,-6.385 7.794,-9.578 15.319,-9.578 2.026,0 3.907,0.144 5.644,0.433 V 27.683 c -1.158,-0.577 -2.853,-0.865 -5.086,-0.865 z" />
    <path
       id="D"
       d="m 649.854,26.818 c -8.269,0 -14.968,3.213 -20.095,9.639 l -0.372,-8.404 h -10.854 v 66.858 h 11.474 v -47.64 c 1.571,-3.213 3.763,-5.808 6.574,-7.786 2.811,-1.978 6.078,-2.966 9.799,-2.966 4.59,0 7.966,1.153 10.13,3.46 2.178,2.307 3.287,5.87 3.328,10.69 v 44.243 h 11.474 V 50.731 C 671.188,34.789 664.035,26.818 649.853,26.818 Z" />
  </defs>
</svg>
