<svg xmlns="http://www.w3.org/2000/svg" xmlns:xlink="http://www.w3.org/1999/xlink" viewBox="0 0 844.801 122.879" fill="none" stroke="none" stroke-linecap="square" stroke-miterlimit="10" xmlns:v="https://vecta.io/nano"><clipPath id="A"><path d="M0 0h844.801v122.879H0V0z"/></clipPath><g clip-path="url(#A)" fill-rule="evenodd"><path fill="#000" fill-opacity="0" d="M0 0h844.801v122.879H0z"/><g fill="silver"><path d="M0 0v94.912h11.474V47.271c1.571-3.213 3.763-5.808 6.574-7.786s6.078-2.966 9.799-2.966c4.59 0 7.966 1.153 10.13 3.46 2.178 2.307 3.287 5.87 3.328 10.69v44.243H52.78V50.731c-.124-15.942-7.277-23.913-21.459-23.913-8.145 0-14.761 3.11-19.847 9.331V0zm76.782 3.707c-2.233 0-3.921.639-5.065 1.916-1.13 1.277-1.695 2.842-1.695 4.696s.565 3.399 1.695 4.634c1.144 1.236 2.832 1.854 5.065 1.854s3.928-.618 5.086-1.854 1.737-2.781 1.737-4.634-.579-3.419-1.737-4.696-2.853-1.916-5.086-1.916zm-5.83 24.346v66.858h11.474V28.053z"/><use xlink:href="#C"/><path d="M169.007 36.21c4.796 0 8.6 1.6 11.412 4.799 2.812 3.186 4.383 7.683 4.714 13.491v.865h-33.615c.744-6.056 2.688-10.759 5.83-14.109 3.142-3.364 7.029-5.046 11.66-5.046zm0-9.392c-5.334 0-10.289 1.476-14.864 4.428-4.562 2.939-8.118 7.017-10.668 12.235-2.536 5.204-3.804 11.122-3.804 17.755v2.101c0 9.969 2.853 17.933 8.559 23.893 5.706 5.946 13.107 8.919 22.203 8.919 11.246 0 19.681-4.305 25.305-12.914l-7.008-5.438c-2.109 2.719-4.569 4.902-7.38 6.55s-6.243 2.472-10.295 2.472c-5.706 0-10.413-2.025-14.12-6.076-3.694-4.065-5.623-9.392-5.789-15.983h45.461V60c0-10.669-2.419-18.867-7.256-24.593s-11.619-8.589-20.343-8.589zm94.271 14.891c2.646 0 5.127.597 7.442 1.792l-2.853 31.081-.062.556c-1.488 3.913-3.384 6.921-5.685 9.022-2.288 2.101-4.672 3.151-7.153 3.151-3.639 0-6.299-1.565-7.98-4.696-1.668-3.131-2.212-7.621-1.633-13.471.786-8.486 2.756-15.18 5.913-20.082 3.17-4.902 7.174-7.353 12.011-7.353zm-1.861-35.221c-9.882 0-18.751 2.465-26.607 7.394-7.856 4.916-14.079 11.898-18.668 20.947-4.59 9.035-7.132 19.217-7.629 30.546-.496 11.658 1.103 21.84 4.796 30.546 3.707 8.719 9.282 15.393 16.725 20.02 7.443 4.641 16.332 6.962 26.669 6.962a54.18 54.18 0 0 0 12.859-1.545c4.245-1.03 7.649-2.348 10.213-3.955l-2.295-7.106c-2.481 1.442-5.596 2.616-9.344 3.522-3.735.906-7.463 1.359-11.184 1.359-8.642 0-16.015-1.991-22.121-5.973-6.092-3.968-10.626-9.708-13.603-17.219-2.977-7.525-4.217-16.395-3.721-26.612.455-10.134 2.543-19.073 6.264-26.818s8.807-13.663 15.257-17.755c6.45-4.106 13.831-6.159 22.141-6.159 13.81 0 24.092 4.202 30.845 12.605 6.767 8.404 9.758 20.618 8.972 36.642-.248 7.415-1.819 13.429-4.714 18.043s-6.678 6.921-11.35 6.921c-6.078 0-8.724-4.758-7.939-14.274l3.225-34.233c-3.308-2.595-6.285-4.332-8.931-5.211-2.646-.893-5.644-1.339-8.993-1.339-4.341 0-8.49 1.524-12.446 4.573-3.942 3.048-7.167 7.243-9.675 12.585-2.495 5.328-4.052 11.39-4.672 18.187-.786 8.445.331 15.057 3.349 19.835s7.463 7.168 13.334 7.168c3.06 0 6.023-.851 8.89-2.554 2.881-1.716 5.437-4.325 7.67-7.827 2.191 6.921 7.153 10.381 14.885 10.381 7.484 0 13.459-2.884 17.924-8.651s6.946-13.635 7.442-23.604c.496-11.658-1.054-21.833-4.652-30.525s-9.076-15.345-16.436-19.959-16.187-6.921-26.483-6.921zm89.869 20.33c-6.905 0-12.239 2.987-16.001 8.96l-.186-7.724h-11.164v66.858h11.474V47.456c2.688-6.385 7.794-9.578 15.319-9.578 2.026 0 3.907.144 5.644.433V27.683c-1.158-.577-2.853-.865-5.086-.865zm41.802 9.392c5.789 0 10.426 2.279 13.913 6.838 3.501 4.545 5.251 10.484 5.251 17.817 0 8.198-1.716 14.576-5.148 19.135-3.432 4.545-8.063 6.818-13.893 6.818-5.789 0-10.413-2.245-13.872-6.735-3.446-4.49-5.168-10.443-5.168-17.858 0-8.362 1.737-14.789 5.21-19.279s8.042-6.735 13.707-6.735zm0-9.392c-5.913 0-11.178 1.421-15.795 4.264-4.603 2.842-8.201 6.879-10.792 12.111-2.577 5.232-3.866 11.122-3.866 17.672v.803c0 10.381 2.819 18.723 8.456 25.026 5.651 6.303 13.024 9.454 22.121 9.454 6.037 0 11.377-1.442 16.022-4.325 4.658-2.884 8.235-6.907 10.73-12.07 2.508-5.177 3.763-11.019 3.763-17.528v-.803c0-10.463-2.825-18.846-8.476-25.149-5.637-6.303-13.024-9.454-22.162-9.454zm76.037 0c-8.352 0-14.988 2.884-19.909 8.651l-.31-7.415h-10.854v66.858h11.474V46.096c2.77-6.385 7.918-9.578 15.443-9.578 9.551 0 14.327 4.861 14.327 14.583v43.81h11.536V50.545c.455-4.284 2.088-7.69 4.9-10.216 2.812-2.54 6.347-3.81 10.606-3.81 5.168 0 8.848 1.188 11.04 3.563 2.191 2.362 3.287 5.932 3.287 10.711v44.119h11.474V50.113c-.248-15.53-7.732-23.295-22.452-23.295-4.879 0-9.11.989-12.694 2.966-3.57 1.977-6.471 4.573-8.704 7.786-3.39-7.168-9.779-10.752-19.164-10.752zm119.949 35.653v13.718c-1.447 2.966-3.783 5.376-7.008 7.23S575.43 86.2 571.833 86.2c-3.763 0-6.843-1.009-9.241-3.028s-3.597-4.82-3.597-8.404c0-8.198 7.029-12.297 21.087-12.297zm-13.521-35.654c-4.879 0-9.358.906-13.438 2.719-4.066 1.813-7.291 4.277-9.675 7.394-2.371 3.103-3.556 6.323-3.556 9.66h11.536c0-2.925 1.385-5.417 4.155-7.477s6.202-3.09 10.295-3.09c4.672 0 8.207 1.188 10.606 3.563 2.398 2.362 3.597 5.541 3.597 9.536v5.252H577.91c-9.634 0-17.111 1.929-22.431 5.788-5.306 3.845-7.959 9.248-7.959 16.21 0 5.726 2.116 10.456 6.347 14.191 4.245 3.721 9.675 5.582 16.291 5.582 7.401 0 13.769-2.76 19.102-8.28.413 3.378.951 5.726 1.612 7.044h12.032v-.989c-1.571-3.625-2.357-8.507-2.357-14.645V48.506c-.165-6.756-2.44-12.056-6.822-15.901-4.383-3.859-10.44-5.788-18.172-5.788z"/><use xlink:href="#D"/><path d="M695.936 81.997c-2.357 0-4.128.659-5.313 1.977-1.172 1.318-1.757 2.966-1.757 4.943 0 1.895.586 3.481 1.757 4.758 1.185 1.277 2.956 1.916 5.313 1.916s4.142-.639 5.354-1.916c1.227-1.277 1.84-2.863 1.84-4.758 0-1.977-.613-3.625-1.84-4.943-1.213-1.318-2.998-1.977-5.354-1.977zM722.046 0v94.912h11.474V47.271c1.571-3.213 3.763-5.808 6.574-7.786s6.078-2.966 9.799-2.966c4.59 0 7.966 1.153 10.13 3.46 2.178 2.307 3.287 5.87 3.328 10.69v44.243h11.474V50.731c-.124-15.942-7.277-23.913-21.459-23.913-8.145 0-14.761 3.11-19.847 9.331V0zm101.28 26.818c-8.269 0-14.968 3.213-20.095 9.639l-.372-8.404h-10.854v66.858h11.474v-47.64c1.571-3.213 3.763-5.808 6.574-7.786s6.078-2.966 9.799-2.966c4.59 0 7.966 1.153 10.13 3.46 2.178 2.307 3.287 5.87 3.328 10.69v44.243h11.474V50.731c-.124-15.942-7.277-23.913-21.459-23.913z"/></g></g><defs ><path id="C" d="M128.135 26.818c-6.905 0-12.239 2.987-16.001 8.96l-.186-7.724h-11.164v66.858h11.474V47.456c2.688-6.385 7.794-9.578 15.319-9.578 2.026 0 3.907.144 5.644.433V27.683c-1.158-.577-2.853-.865-5.086-.865z"/><path id="D" d="M649.854 26.818c-8.269 0-14.968 3.213-20.095 9.639l-.372-8.404h-10.854v66.858h11.474V47.271c1.571-3.213 3.763-5.808 6.574-7.786s6.078-2.966 9.799-2.966c4.59 0 7.966 1.153 10.13 3.46 2.178 2.307 3.287 5.87 3.328 10.69v44.243h11.474V50.731c-.124-15.942-7.277-23.913-21.459-23.913z"/></defs></svg>