<svg version="1.1" xmlns="http://www.w3.org/2000/svg" xmlns:xlink="http://www.w3.org/1999/xlink" width="800" height="800"><defs/><g transform="scale(2,2)"><g id="background-a092dee0"><rect fill="white" stroke="none" x="0" y="0" width="400" height="400" class="dcg-svg-background"/></g><g id="background-images-a092dee0"/><g id="graphpaper-a092dee0"><g id="grid-a092dee0"><g><path fill="none" stroke="rgb(0,0,0)" class="dcg-svg-minor-gridline" paint-order="fill stroke markers" d=" M -0.5 0 L -0.5 400" stroke-opacity="0.2" stroke-miterlimit="10" stroke-dasharray=""/><path fill="none" stroke="rgb(0,0,0)" class="dcg-svg-minor-gridline" paint-order="fill stroke markers" d=" M 49.5 0 L 49.5 400" stroke-opacity="0.2" stroke-miterlimit="10" stroke-dasharray=""/><path fill="none" stroke="rgb(0,0,0)" class="dcg-svg-minor-gridline" paint-order="fill stroke markers" d=" M 99.5 0 L 99.5 400" stroke-opacity="0.2" stroke-miterlimit="10" stroke-dasharray=""/><path fill="none" stroke="rgb(0,0,0)" class="dcg-svg-minor-gridline" paint-order="fill stroke markers" d=" M 149.5 0 L 149.5 400" stroke-opacity="0.2" stroke-miterlimit="10" stroke-dasharray=""/><path fill="none" stroke="rgb(0,0,0)" class="dcg-svg-minor-gridline" paint-order="fill stroke markers" d=" M 249.5 0 L 249.5 400" stroke-opacity="0.2" stroke-miterlimit="10" stroke-dasharray=""/><path fill="none" stroke="rgb(0,0,0)" class="dcg-svg-minor-gridline" paint-order="fill stroke markers" d=" M 299.5 0 L 299.5 400" stroke-opacity="0.2" stroke-miterlimit="10" stroke-dasharray=""/><path fill="none" stroke="rgb(0,0,0)" class="dcg-svg-minor-gridline" paint-order="fill stroke markers" d=" M 349.5 0 L 349.5 400" stroke-opacity="0.2" stroke-miterlimit="10" stroke-dasharray=""/><path fill="none" stroke="rgb(0,0,0)" class="dcg-svg-minor-gridline" paint-order="fill stroke markers" d=" M 0 372.5 L 400 372.5" stroke-opacity="0.2" stroke-miterlimit="10" stroke-dasharray=""/><path fill="none" stroke="rgb(0,0,0)" class="dcg-svg-minor-gridline" paint-order="fill stroke markers" d=" M 0 333.5 L 400 333.5" stroke-opacity="0.2" stroke-miterlimit="10" stroke-dasharray=""/><path fill="none" stroke="rgb(0,0,0)" class="dcg-svg-minor-gridline" paint-order="fill stroke markers" d=" M 0 256.5 L 400 256.5" stroke-opacity="0.2" stroke-miterlimit="10" stroke-dasharray=""/><path fill="none" stroke="rgb(0,0,0)" class="dcg-svg-minor-gridline" paint-order="fill stroke markers" d=" M 0 217.5 L 400 217.5" stroke-opacity="0.2" stroke-miterlimit="10" stroke-dasharray=""/><path fill="none" stroke="rgb(0,0,0)" class="dcg-svg-minor-gridline" paint-order="fill stroke markers" d=" M 0 179.5 L 400 179.5" stroke-opacity="0.2" stroke-miterlimit="10" stroke-dasharray=""/><path fill="none" stroke="rgb(0,0,0)" class="dcg-svg-minor-gridline" paint-order="fill stroke markers" d=" M 0 140.5 L 400 140.5" stroke-opacity="0.2" stroke-miterlimit="10" stroke-dasharray=""/><path fill="none" stroke="rgb(0,0,0)" class="dcg-svg-minor-gridline" paint-order="fill stroke markers" d=" M 0 102.5 L 400 102.5" stroke-opacity="0.2" stroke-miterlimit="10" stroke-dasharray=""/><path fill="none" stroke="rgb(0,0,0)" class="dcg-svg-minor-gridline" paint-order="fill stroke markers" d=" M 0 63.5 L 400 63.5" stroke-opacity="0.2" stroke-miterlimit="10" stroke-dasharray=""/><path fill="none" stroke="rgb(0,0,0)" class="dcg-svg-minor-gridline" paint-order="fill stroke markers" d=" M 0 25.5 L 400 25.5" stroke-opacity="0.2" stroke-miterlimit="10" stroke-dasharray=""/><path fill="none" stroke="rgb(0,0,0)" class="dcg-svg-major-gridline" paint-order="fill stroke markers" d=" M 0 102.5 L 400 102.5" stroke-opacity="0.2500000000000001" stroke-miterlimit="10" stroke-dasharray=""/></g></g><g id="axis-a092dee0"><g id="yaxis-a092dee0"><title>Y axis</title><path fill="none" stroke="rgb(0,0,0)" class="dcg-svg-axis-line" paint-order="fill stroke markers" d=" M 200 0 L 200 400" stroke-opacity="0.9" stroke-miterlimit="10" stroke-width="1.5" stroke-dasharray=""/></g><g id="xaxis-a092dee0"><title>X axis</title><path fill="none" stroke="rgb(0,0,0)" class="dcg-svg-axis-line" paint-order="fill stroke markers" d=" M 0 295 L 400 295" stroke-opacity="0.9" stroke-miterlimit="10" stroke-width="1.5" stroke-dasharray=""/></g><g/></g></g><g id="expressions-a092dee0"><g id="sketch-a092dee0"><title>Expression 5</title><path fill="#000000" stroke="none" paint-order="stroke fill markers" d="" fill-opacity="0.4"/><g><path fill="none" stroke="#000000" class="dcg-svg-curve" paint-order="fill stroke markers" d=" M 109.61707446535544 405.5 L 109.61707446535544 405.5 L 111.51171875 379.59890328759604 L 114.24609375 344.88226711383055 L 116.8828125 313.85787276973963 L 119.421875 286.1940979107809 L 121.9609375 260.6388331916842 L 124.40234375 237.99851527238525 L 126.74609375 217.99519877190687 L 129.08984375 199.63964791444917 L 131.3359375 183.55105128052244 L 133.484375 169.4984222191491 L 135.6328125 156.7153165089728 L 137.68359375 145.66383435191588 L 139.63671875 136.1537670521201 L 141.58984375 127.60607235539777 L 143.4453125 120.35205621768472 L 145.203125 114.23664458204695 L 146.9609375 108.8371279151603 L 148.62109375 104.37681857812169 L 150.18359375 100.73067129541113 L 151.6484375 97.78554412328793 L 153.11328125 95.28640430248163 L 154.48046875 93.34599585059101 L 155.84765625 91.77450914631584 L 157.1171875 90.6373436094812 L 158.38671875 89.80255830073065 L 159.75390625 89.23304158300613 L 161.0234375 89.00209110713246 L 162.29296875 89.05023098298199 L 163.5625 89.3698920007376 L 164.9296875 90.00911412405725 L 166.296875 90.94500425430624 L 167.6640625 92.16810863102091 L 169.12890625 93.78655693633567 L 170.69140625 95.85125270919002 L 172.3515625 98.41222095028786 L 174.109375 101.51778126258176 L 175.96484375 105.21366931303766 L 178.015625 109.76983922993753 L 180.1640625 115.03999831924637 L 182.5078125 121.32683171349464 L 185.046875 128.71682891803152 L 187.87890625 137.5978737511594 L 191.00390625 148.08136830638796 L 194.51953125 160.5964038647206 L 198.62109375 175.9553641583185 L 203.9921875 196.8954062616816 L 218.4453125 253.67444354823255 L 222.64453125 269.12882630099 L 226.16015625 281.33577400374776 L 229.28515625 291.4879367636805 L 232.1171875 300.0219865557687 L 234.65625 307.06311335594756 L 237 312.99621624935065 L 239.1484375 317.9153918488722 L 241.19921875 322.1126806191933 L 243.0546875 325.46379236831024 L 244.8125 328.2251310641903 L 246.47265625 330.4452850391288 L 248.03515625 332.1752680800006 L 249.5 333.46764089002465 L 250.8671875 334.3756842292482 L 252.234375 334.986159203403 L 253.6015625 335.2896120520256 L 254.87109375 335.28821615238473 L 256.140625 335.00637132489953 L 257.41015625 334.4365083597528 L 258.6796875 333.5710580471273 L 259.94921875 332.40245117720565 L 261.21875 330.92311854017066 L 262.48828125 329.12549092620515 L 263.85546875 326.8249392185582 L 265.3203125 323.92994040457836 L 266.78515625 320.5786184953346 L 268.34765625 316.4878045397004 L 270.0078125 311.54215163522633 L 271.66796875 305.96258458615745 L 273.42578125 299.3450521738261 L 275.28125 291.54608393650284 L 277.13671875 282.888109722905 L 279.08984375 272.82046348964366 L 281.140625 261.1667140875419 L 283.19140625 248.37243601236673 L 285.33984375 233.71085362803078 L 287.5859375 216.96720051105743 L 289.83203125 198.73514284490355 L 292.17578125 178.0781663352274 L 294.6171875 154.73725723871493 L 297.05859375 129.48279999199832 L 299.59765625 101.1304061925648 L 302.13671875 70.58954034443053 L 304.7734375 36.49276342611586 L 307.5078125 -1.5011281415606277 L 307.7761365183431 -5.5" stroke-linecap="round" stroke-linejoin="round" stroke-miterlimit="10" stroke-width="2.5" stroke-opacity="0.9" stroke-dasharray=""/></g></g><g id="sketch-a092dee0"><title>Expression 11</title><path fill="#388c46" stroke="none" paint-order="stroke fill markers" d="" fill-opacity="0.4"/><g><path fill="none" stroke="#388c46" class="dcg-svg-curve" paint-order="fill stroke markers" d=" M 183 399.5 L 183 388.5 M 183 381.5 L 183 370.5 M 183 363.5 L 183 352.5 M 183 345.5 L 183 334.5 M 183 327.5 L 183 316.5 M 183 309.5 L 183 298.5 M 183 291.5 L 183 280.5 M 183 273.5 L 183 262.5 M 183 255.5 L 183 244.5 M 183 237.5 L 183 226.5 M 183 219.5 L 183 208.5 M 183 201.5 L 183 190.5 M 183 183.5 L 183 172.5 M 183 165.5 L 183 154.5 M 183 147.5 L 183 136.5 M 183 129.5 L 183 118.5 M 183 111.5 L 183 100.5 M 183 93.5 L 183 82.5 M 183 75.5 L 183 64.5 M 183 57.5 L 183 46.5 M 183 39.5 L 183 28.5 M 183 21.5 L 183 10.5 M 183 3.5 L 183 -0.5" stroke-linecap="round" stroke-linejoin="round" stroke-miterlimit="10" stroke-width="2.5" stroke-opacity="0.9" stroke-dasharray=""/></g></g><g id="sketch-a092dee0"><title>"a" Subscript, 0 , Baseline</title><path fill="none" stroke="#388c46" class="dcg-svg-point" paint-order="fill stroke markers" d=" M 182.9 294.8331945075794 L 182.9 295.0331945075794 L 183.1 295.0331945075794 L 183.1 294.8331945075794" stroke-linecap="round" stroke-linejoin="round" stroke-miterlimit="10" stroke-width="7.5" stroke-opacity="0.9" stroke-dasharray=""/></g><g id="sketch-a092dee0"><title>Expression 13</title><path fill="#2d70b3" stroke="none" paint-order="stroke fill markers" d="" fill-opacity="0.4"/><g><path fill="none" stroke="#2d70b3" class="dcg-svg-curve" paint-order="fill stroke markers" d=" M 137.87362344985024 -5.5 L 137.87362344985024 -5.5 L 282.5297006005377 405.5" stroke-linecap="round" stroke-linejoin="round" stroke-miterlimit="10" stroke-width="2.5" stroke-opacity="0.9" stroke-dasharray=""/></g></g><g id="sketch-a092dee0"><title>Expression 14</title><path fill="#2d70b3" stroke="none" paint-order="stroke fill markers" d="" fill-opacity="0.4"/><g><path fill="none" stroke="#2d70b3" class="dcg-svg-curve" paint-order="fill stroke markers" d=" M 243.614468616069 399.5 L 243.614468616069 388.5 M 243.614468616069 381.5 L 243.614468616069 370.5 M 243.614468616069 363.5 L 243.614468616069 352.5 M 243.614468616069 345.5 L 243.614468616069 334.5 M 243.614468616069 327.5 L 243.614468616069 316.5 M 243.614468616069 309.5 L 243.614468616069 298.5 M 243.614468616069 291.5 L 243.614468616069 280.5 M 243.614468616069 273.5 L 243.614468616069 262.5 M 243.614468616069 255.5 L 243.614468616069 244.5 M 243.614468616069 237.5 L 243.614468616069 226.5 M 243.614468616069 219.5 L 243.614468616069 208.5 M 243.614468616069 201.5 L 243.614468616069 190.5 M 243.614468616069 183.5 L 243.614468616069 172.5 M 243.614468616069 165.5 L 243.614468616069 154.5 M 243.614468616069 147.5 L 243.614468616069 136.5 M 243.614468616069 129.5 L 243.614468616069 118.5 M 243.614468616069 111.5 L 243.614468616069 100.5 M 243.614468616069 93.5 L 243.614468616069 82.5 M 243.614468616069 75.5 L 243.614468616069 64.5 M 243.614468616069 57.5 L 243.614468616069 46.5 M 243.614468616069 39.5 L 243.614468616069 28.5 M 243.614468616069 21.5 L 243.614468616069 10.5 M 243.614468616069 3.5 L 243.614468616069 -0.5" stroke-linecap="round" stroke-linejoin="round" stroke-miterlimit="10" stroke-width="2.5" stroke-opacity="0.9" stroke-dasharray=""/></g></g><g id="sketch-a092dee0"><title>"a" Subscript, 1 , Baseline</title><path fill="none" stroke="#2d70b3" class="dcg-svg-point" paint-order="fill stroke markers" d=" M 243.51446861606902 294.8331945075794 L 243.51446861606902 295.0331945075794 L 243.714468616069 295.0331945075794 L 243.714468616069 294.8331945075794" stroke-linecap="round" stroke-linejoin="round" stroke-miterlimit="10" stroke-width="7.5" stroke-opacity="0.9" stroke-dasharray=""/></g></g><g id="labels-a092dee0"><g transform="rotate(0,0,0) translate(183.5,295.4331945075794)"><g class="dcg-svg-label"><g transform="translate(-1027.0625,-994.5113195075794)"><g><text fill="none" stroke="#FFF" font-family="Symbola, &quot;Times New Roman&quot;, serif" font-size="17.71px" font-style="normal" font-weight="400" text-decoration="normal" x="0" y="13.962119999999999" text-anchor="start" stroke-linecap="round" stroke-linejoin="round" stroke-miterlimit="2" stroke-width="3" stroke-opacity="0.9" stroke-dasharray="">"a" Subscript, 0 , Baseline</text></g></g><g transform="translate(-25.0625,5.488680492420599)"><g><text fill="none" stroke="#FFF" font-family="&quot;Times New Roman&quot;, Symbola, serif" font-size="17.71px" font-style="italic" font-weight="400" text-decoration="normal" x="0" y="15.962119999999999" text-anchor="start" stroke-linecap="round" stroke-linejoin="round" stroke-miterlimit="2" stroke-width="3" stroke-opacity="0.9" stroke-dasharray="">a</text></g></g><g transform="translate(-16.109375,16.4574304924206)"><g><text fill="none" stroke="#FFF" font-family="Symbola, &quot;Times New Roman&quot;, serif" font-size="12.7512px" font-style="normal" font-weight="400" text-decoration="normal" x="0" y="10.0927264" text-anchor="start" stroke-linecap="round" stroke-linejoin="round" stroke-miterlimit="2" stroke-width="3" stroke-opacity="0.9" stroke-dasharray="">0</text></g></g><g transform="translate(-1027.0625,-994.5113195075794)"><g><text fill="rgb(56, 140, 70)" stroke="none" font-family="Symbola, &quot;Times New Roman&quot;, serif" font-size="17.71px" font-style="normal" font-weight="400" text-decoration="normal" x="0" y="13.962119999999999" text-anchor="start" fill-opacity="0.9">"a" Subscript, 0 , Baseline</text></g></g><g transform="translate(-25.0625,5.488680492420599)"><g><text fill="rgb(56, 140, 70)" stroke="none" font-family="&quot;Times New Roman&quot;, Symbola, serif" font-size="17.71px" font-style="italic" font-weight="400" text-decoration="normal" x="0" y="15.962119999999999" text-anchor="start" fill-opacity="0.9">a</text></g></g><g transform="translate(-16.109375,16.4574304924206)"><g><text fill="rgb(56, 140, 70)" stroke="none" font-family="Symbola, &quot;Times New Roman&quot;, serif" font-size="12.7512px" font-style="normal" font-weight="400" text-decoration="normal" x="0" y="10.0927264" text-anchor="start" fill-opacity="0.9">0</text></g></g></g></g><g transform="rotate(0,0,0) translate(244.11446861606902,295.4331945075794)"><g class="dcg-svg-label"><g transform="translate(-1027.067593616069,-994.5113195075794)"><g><text fill="none" stroke="#FFF" font-family="Symbola, &quot;Times New Roman&quot;, serif" font-size="17.71px" font-style="normal" font-weight="400" text-decoration="normal" x="0" y="13.962119999999999" text-anchor="start" stroke-linecap="round" stroke-linejoin="round" stroke-miterlimit="2" stroke-width="3" stroke-opacity="0.9" stroke-dasharray="">"a" Subscript, 1 , Baseline</text></g></g><g transform="translate(-25.06759361606902,5.488680492420599)"><g><text fill="none" stroke="#FFF" font-family="&quot;Times New Roman&quot;, Symbola, serif" font-size="17.71px" font-style="italic" font-weight="400" text-decoration="normal" x="0" y="15.962119999999999" text-anchor="start" stroke-linecap="round" stroke-linejoin="round" stroke-miterlimit="2" stroke-width="3" stroke-opacity="0.9" stroke-dasharray="">a</text></g></g><g transform="translate(-16.11446861606902,16.4574304924206)"><g><text fill="none" stroke="#FFF" font-family="Symbola, &quot;Times New Roman&quot;, serif" font-size="12.7512px" font-style="normal" font-weight="400" text-decoration="normal" x="0" y="10.0927264" text-anchor="start" stroke-linecap="round" stroke-linejoin="round" stroke-miterlimit="2" stroke-width="3" stroke-opacity="0.9" stroke-dasharray="">1</text></g></g><g transform="translate(-1027.067593616069,-994.5113195075794)"><g><text fill="rgb(45, 112, 179)" stroke="none" font-family="Symbola, &quot;Times New Roman&quot;, serif" font-size="17.71px" font-style="normal" font-weight="400" text-decoration="normal" x="0" y="13.962119999999999" text-anchor="start" fill-opacity="0.9">"a" Subscript, 1 , Baseline</text></g></g><g transform="translate(-25.06759361606902,5.488680492420599)"><g><text fill="rgb(45, 112, 179)" stroke="none" font-family="&quot;Times New Roman&quot;, Symbola, serif" font-size="17.71px" font-style="italic" font-weight="400" text-decoration="normal" x="0" y="15.962119999999999" text-anchor="start" fill-opacity="0.9">a</text></g></g><g transform="translate(-16.11446861606902,16.4574304924206)"><g><text fill="rgb(45, 112, 179)" stroke="none" font-family="Symbola, &quot;Times New Roman&quot;, serif" font-size="12.7512px" font-style="normal" font-weight="400" text-decoration="normal" x="0" y="10.0927264" text-anchor="start" fill-opacity="0.9">1</text></g></g></g></g></g></g></svg>