<svg width="800" height="800" xmlns="http://www.w3.org/2000/svg"><g style="display:inline"><path fill="#fff" class="dcg-svg-background" d="M0 0h800v800H0z" style="fill:#000"/></g><g style="display:inline"><g style="stroke:#fff"><path fill="none" stroke="#000" class="dcg-svg-axis-line" paint-order="fill stroke markers" d="M200 0v400M0 200h400" stroke-opacity=".9" stroke-miterlimit="10" stroke-width="1.5" style="stroke:#fff" transform="scale(2)"/></g><path fill="none" stroke="#000" class="dcg-svg-major-gridline" paint-order="fill stroke markers" d="M51 0v800M747 0v800M0 747h800M0 51h800" stroke-opacity=".25" stroke-miterlimit="10" stroke-width="2" style="stroke:#fff"/><path fill="none" stroke="#000" class="dcg-svg-minor-gridline" paint-order="fill stroke markers" d="M51 0v800M121 0v800M191 0v800M259 0v800M329 0v800M469 0v800M539 0v800M607 0v800M677 0v800M747 0v800M0 747h800M0 677h800M0 607h800M0 539h800M0 469h800M0 329h800M0 259h800M0 191h800M0 121h800M0 51h800" stroke-opacity=".2" stroke-miterlimit="10" stroke-width="2" style="stroke:#fff"/></g><path fill="none" stroke="#c74440" class="dcg-svg-curve" paint-order="fill stroke markers" d="M109.014 269.495v0l6.83 34.152m-7.638-68.799v0l8.447 33.789m-9.73-68.243v0l11.013 33.04m-13.294-66.924v0l15.575 31.152m-20.101-62.718v0l24.627 24.627M95.015 112.43h34.829m13.19 157.246v0l8.447 33.789m-9.731-68.243v0l11.014 33.04m-13.294-66.924v0l15.575 31.152m-20.101-62.718v0l24.627 24.628m-29.727-47.142h34.828m-29.728-22.515v0l24.627-24.627m17.008 169.934v0l11.014 33.041m-13.295-66.924v0l15.576 31.151M169.772 204.6v0l24.628 24.628m-29.728-47.142H199.5m-29.728-22.515v0l24.628-24.627m-20.102-6.939v0l15.576-31.151m19.252 174.141v0l15.576 31.151M204.6 239.429v0l24.628 24.627M199.5 216.914h34.828M204.6 194.4v0l24.628-24.628m-20.102-6.939v0l15.576-31.151m-13.295-2.732v0l11.014-33.041m17.008 178.348v0l24.627 24.627m-29.728-47.142h34.828m-29.727-22.514v0l24.627-24.628m-20.101-6.938v0l15.575-31.152m-13.294-2.732v0l11.013-33.04m-9.73-1.414v0l8.447-33.789m13.19 191.035h34.829m-29.728-22.514v0l24.627-24.627m-20.101-6.939v0l15.575-31.152m-13.294-2.732v0l11.013-33.04m-9.73-1.414v0l8.447-33.789m-7.639-.858v0l6.83-34.152" stroke-linecap="round" stroke-linejoin="round" stroke-miterlimit="10" stroke-width="2.5" stroke-opacity=".9" transform="scale(2)" style="display:inline"/><g style="display:inline"><path fill="none" stroke="#c74440" class="dcg-svg-point" paint-order="fill stroke markers" d="M224.66 572.94v.4h.4v-.4m-.4-69.656v.4h.4v-.4m-.4-69.656v.4h.4v-.4m-.4-69.656v.4h.4v-.4m-.4-69.656v.4h.4v-.4m-.4-69.656v.4h.4v-.4m69.256 348.28v.4h.4v-.4m-.4-69.656v.4h.4v-.4m-.4-69.656v.4h.4v-.4m-.4-69.656v.4h.4v-.4m-.4-69.656v.4h.4v-.4m-.4-69.656v.4h.4v-.4m69.256 348.28v.4h.4v-.4m-.4-69.656v.4h.4v-.4m-.4-69.656v.4h.4v-.4m-.4-69.656v.4h.4v-.4m-.4-69.656v.4h.4v-.4m-.4-69.656v.4h.4v-.4m69.256 348.28v.4h.4v-.4m-.4-69.656v.4h.4v-.4m-.4-69.656v.4h.4v-.4m-.4-69.656v.4h.4v-.4m-.4-69.656v.4h.4v-.4m-.4-69.656v.4h.4v-.4m69.256 348.28v.4h.4v-.4m-.4-69.656v.4h.4v-.4m-.4-69.656v.4h.4v-.4m-.4-69.656v.4h.4v-.4m-.4-69.656v.4h.4v-.4m-.4-69.656v.4h.4v-.4m69.256 348.28v.4h.4v-.4m-.4-69.656v.4h.4v-.4m-.4-69.656v.4h.4v-.4m-.4-69.656v.4h.4v-.4m-.4-69.656v.4h.4v-.4m-.4-69.656v.4h.4v-.4" stroke-linecap="round" stroke-linejoin="round" stroke-miterlimit="10" stroke-width="15" stroke-opacity=".9"/><path fill="none" stroke="#000" class="dcg-svg-point" paint-order="fill stroke markers" d="M199.4 199.4v.2h.2v-.2" stroke-linecap="round" stroke-linejoin="round" stroke-miterlimit="10" stroke-width="7.5" stroke-opacity=".9" style="stroke:#fff" transform="scale(2)"/></g></svg>